<?xml version="1.0" encoding="UTF-8" standalone="no"?>
<!DOCTYPE svg PUBLIC "-//W3C//DTD SVG 1.1//EN" "http://www.w3.org/Graphics/SVG/1.1/DTD/svg11.dtd">
<svg width="100%" height="100%" viewBox="0 0 1080 1080" version="1.1" xmlns="http://www.w3.org/2000/svg" xmlns:xlink="http://www.w3.org/1999/xlink" xml:space="preserve" xmlns:serif="http://www.serif.com/" style="fill-rule:evenodd;clip-rule:evenodd;stroke-linejoin:round;stroke-miterlimit:2;">
    <rect id="Artboard1" x="0" y="0" width="1080" height="1080" style="fill:none;"/>
    <g id="Artboard11" serif:id="Artboard1">
        <g id="Layer-1" serif:id="Layer 1">
            <g transform="matrix(689.412,0,0,-689.412,194.441,463.699)">
                <path d="M0.501,0.456C0.536,0.434 0.566,0.403 0.59,0.365C0.623,0.312 0.641,0.249 0.641,0.183C0.641,0.161 0.639,0.14 0.635,0.119C0.666,0.139 0.699,0.157 0.732,0.173C0.732,0.176 0.732,0.18 0.732,0.183C0.732,0.355 0.636,0.501 0.501,0.559L0.501,0.456ZM0.213,-0.057C0.064,-0.143 -0.015,-0.3 0.002,-0.446L0.092,-0.394C0.094,-0.353 0.105,-0.311 0.126,-0.272C0.156,-0.216 0.201,-0.17 0.258,-0.137C0.273,-0.128 0.289,-0.121 0.304,-0.114C0.277,-0.092 0.248,-0.072 0.218,-0.054C0.216,-0.055 0.214,-0.056 0.213,-0.057ZM0.632,-0.492C0.762,-0.538 0.901,-0.519 1,-0.446L0.91,-0.394C0.871,-0.414 0.824,-0.425 0.776,-0.425L0.776,-0.425C0.721,-0.425 0.664,-0.411 0.613,-0.383C0.617,-0.421 0.623,-0.457 0.632,-0.492Z" style="fill:url(#_Linear1);fill-rule:nonzero;"/>
            </g>
            <g transform="matrix(0,740.425,740.425,0,540,261.528)">
                <path d="M0.146,-0.551C0.318,-0.547 0.478,-0.441 0.54,-0.27C0.738,-0.3 0.933,-0.179 1,0C0.933,0.179 0.738,0.3 0.54,0.27C0.478,0.441 0.318,0.547 0.146,0.551C-0.008,0.421 -0.049,0.177 0.065,0C0.021,-0.068 0,-0.147 -0,-0.225C-0,-0.349 0.052,-0.471 0.146,-0.551ZM0.178,0.463C0.331,0.447 0.461,0.319 0.478,0.166C0.637,0.23 0.833,0.154 0.907,0C0.833,-0.154 0.637,-0.23 0.478,-0.166C0.461,-0.319 0.331,-0.447 0.178,-0.463C0.058,-0.34 0.054,-0.127 0.171,0C0.054,0.127 0.058,0.34 0.178,0.463Z" style="fill:url(#_Linear2);fill-rule:nonzero;"/>
            </g>
            <g transform="matrix(0,775.035,775.035,0,540,149.985)">
                <path d="M0.043,0.225C0.066,0.225 0.085,0.245 0.085,0.268C0.085,0.292 0.066,0.311 0.043,0.311C0.019,0.311 -0,0.292 -0,0.268C-0,0.245 0.019,0.225 0.043,0.225ZM0.043,-0.311C0.066,-0.311 0.085,-0.292 0.085,-0.268C0.085,-0.245 0.066,-0.225 0.043,-0.225C0.019,-0.225 -0,-0.245 -0,-0.268C-0,-0.292 0.019,-0.311 0.043,-0.311ZM0.599,0.487C0.623,0.487 0.642,0.506 0.642,0.53C0.642,0.553 0.623,0.572 0.599,0.572C0.576,0.572 0.557,0.553 0.557,0.53C0.557,0.506 0.576,0.487 0.599,0.487ZM0.599,-0.572C0.623,-0.572 0.642,-0.553 0.642,-0.53C0.642,-0.506 0.623,-0.487 0.599,-0.487C0.576,-0.487 0.557,-0.506 0.557,-0.53C0.557,-0.553 0.576,-0.572 0.599,-0.572ZM0.957,0.253C0.981,0.253 1,0.272 1,0.296C1,0.319 0.981,0.338 0.957,0.338C0.934,0.338 0.915,0.319 0.915,0.296C0.915,0.272 0.934,0.253 0.957,0.253ZM0.957,-0.338C0.981,-0.338 1,-0.319 1,-0.296C1,-0.272 0.981,-0.253 0.957,-0.253C0.934,-0.253 0.915,-0.272 0.915,-0.296C0.915,-0.319 0.934,-0.338 0.957,-0.338Z" style="fill:url(#_Linear3);fill-rule:nonzero;"/>
            </g>
            <g transform="matrix(1.40451,0,0,1.40451,591.728,676.935)">
                <path d="M0,-75.851C-16.009,-16.578 -14.274,52.438 4.56,110.49C-8.29,122.889 -22.13,134.269 -36.83,144.5C-51.53,134.269 -65.37,122.889 -78.22,110.49C-59.385,52.44 -57.65,-16.58 -73.66,-75.851C-120.11,-130.65 -183.87,-170.31 -256.49,-186.391C-235.75,-204.69 -209.66,-216.031 -182.32,-220.351C-126.06,-197.431 -76.36,-161.73 -36.83,-116.851C2.7,-161.73 52.4,-197.431 108.66,-220.351C136,-216.031 162.09,-204.69 182.83,-186.391C110.21,-170.31 46.45,-130.65 0,-75.851" style="fill:white;fill-rule:nonzero;"/>
            </g>
            <g transform="matrix(1.40451,0,0,1.40451,-331.006,-218.437)">
                <clipPath id="_clip4">
                    <path d="M329.778,418.836C331.538,509.266 387.898,593.516 477.848,626.496C462.131,731.048 525.676,833.69 620.148,868.906C714.615,833.701 778.171,731.034 762.448,626.496C852.398,593.516 908.758,509.266 910.518,418.836C842.054,337.636 713.202,315.944 620.148,376.066C584.042,352.742 542.553,341.731 501.297,341.73C436.207,341.73 371.69,369.137 329.778,418.836ZM864.318,435.666C856.03,515.992 788.362,584.622 707.888,593.836C741.474,677.419 701.303,780.839 620.148,819.746C538.993,780.839 498.822,677.419 532.409,593.836C451.933,584.622 384.267,515.992 375.978,435.666C440.972,372.082 553.28,370.403 620.148,432.106C687.016,370.403 799.325,372.082 864.318,435.666Z" clip-rule="nonzero"/>
                </clipPath>
                <g clip-path="url(#_clip4)">
                    <g opacity="0.22">
                        <g>
                            <g transform="matrix(-1,0,0,1,804.42,624.577)">
                                <path d="M0,-94.456C-26.083,-94.456 -47.228,-73.311 -47.228,-47.228C-47.228,-21.145 -26.083,0 0,0C26.083,0 47.228,-21.145 47.228,-47.228C47.228,-73.311 26.083,-94.456 0,-94.456" style="fill:rgb(0,148,68);"/>
                            </g>
                            <g transform="matrix(-1,0,0,1,532.552,416.774)">
                                <path d="M0,-94.456C-26.083,-94.456 -47.228,-73.311 -47.228,-47.228C-47.228,-21.145 -26.083,0 0,0C26.083,0 47.228,-21.145 47.228,-47.228C47.228,-73.311 26.083,-94.456 0,-94.456" style="fill:rgb(0,148,68);"/>
                            </g>
                            <g transform="matrix(-1,0,0,1,510.376,759.278)">
                                <path d="M0,-94.456C-26.083,-94.456 -47.228,-73.311 -47.228,-47.228C-47.228,-21.144 -26.083,0 0,0C26.083,0 47.228,-21.144 47.228,-47.228C47.228,-73.311 26.083,-94.456 0,-94.456" style="fill:rgb(0,148,68);"/>
                            </g>
                            <g transform="matrix(0.998716,0,0,0.999908,-48.1944,-189.635)">
                                <rect x="284.233" y="345.192" width="769.938" height="769.02" style="fill:white;"/>
                            </g>
                        </g>
                    </g>
                </g>
            </g>
            <g transform="matrix(0,-742.149,-742.149,0,550.96,820.196)">
                <path d="M0.65,0.229C0.647,0.229 0.644,0.229 0.641,0.229C0.626,0.198 0.609,0.168 0.59,0.139C0.61,0.143 0.63,0.144 0.65,0.144C0.712,0.144 0.77,0.128 0.82,0.097C0.855,0.075 0.883,0.047 0.904,0.015L1,0.015C0.946,0.14 0.81,0.229 0.65,0.229ZM0.374,-0.168C0.368,-0.182 0.361,-0.197 0.353,-0.211C0.323,-0.264 0.279,-0.306 0.228,-0.333C0.191,-0.353 0.153,-0.364 0.114,-0.365L0.066,-0.449C0.202,-0.464 0.347,-0.391 0.427,-0.253C0.428,-0.252 0.429,-0.25 0.43,-0.248C0.414,-0.22 0.395,-0.193 0.374,-0.168ZM0.085,0.27C0.085,0.315 0.095,0.358 0.114,0.395L0.066,0.478C-0.002,0.386 -0.02,0.257 0.023,0.137C0.056,0.128 0.09,0.122 0.124,0.119C0.099,0.167 0.085,0.219 0.085,0.27Z" style="fill:url(#_Linear5);fill-rule:nonzero;"/>
            </g>
        </g>
    </g>
    <defs>
        <linearGradient id="_Linear1" x1="0" y1="0" x2="1" y2="0" gradientUnits="userSpaceOnUse" gradientTransform="matrix(1,0,0,-1,0,0.0211456)"><stop offset="0" style="stop-color:rgb(93,174,11);stop-opacity:1"/><stop offset="1" style="stop-color:rgb(3,79,17);stop-opacity:1"/></linearGradient>
        <linearGradient id="_Linear2" x1="0" y1="0" x2="1" y2="0" gradientUnits="userSpaceOnUse" gradientTransform="matrix(1,0,0,-1,0,2.70498e-07)"><stop offset="0" style="stop-color:rgb(37,158,58);stop-opacity:1"/><stop offset="1" style="stop-color:rgb(154,226,82);stop-opacity:1"/></linearGradient>
        <linearGradient id="_Linear3" x1="0" y1="0" x2="1" y2="0" gradientUnits="userSpaceOnUse" gradientTransform="matrix(1,0,0,-1,0,2.58419e-07)"><stop offset="0" style="stop-color:rgb(37,158,58);stop-opacity:1"/><stop offset="1" style="stop-color:rgb(154,226,82);stop-opacity:1"/></linearGradient>
        <linearGradient id="_Linear5" x1="0" y1="0" x2="1" y2="0" gradientUnits="userSpaceOnUse" gradientTransform="matrix(1,0,0,-1,0,0.0137697)"><stop offset="0" style="stop-color:rgb(154,226,82);stop-opacity:1"/><stop offset="1" style="stop-color:rgb(37,158,58);stop-opacity:1"/></linearGradient>
    </defs>
</svg>
